<svg width="0" height="0" class="hidden">
    <symbol xmlns="http://www.w3.org/2000/svg" viewBox="0 0 149 46" id="logo-menu">
        <path d="M.613 45V.566h7.11V45H.613zM10.96 24.941v-6.918h4.253c3.09 0 4.76-1.503 5.014-4.507v-.762c-.296-3.343-1.967-5.1-5.014-5.269H10.96V.566h4.824C23.486.693 27.358 4.714 27.4 12.627c0 6.136-1.946 9.966-5.84 11.49-1.607.55-3.533.824-5.776.824H10.96zM31.019 45V.566h23.105V7.55H38.128v11.806h10.03v7.11h-10.03v11.49h15.996V45H31.019zm27.548 0l8.38-37.26h.951l2.92 13.456L65.55 45h-6.983zm11.744-6.348l1.46-6.919h4.76L69.676.566h6.982L86.878 45h-7.046l-1.396-6.348H70.31zM90.75 33.51c0 2.455.91 4.846 2.73 7.174 2.454 3.047 5.733 4.591 9.838 4.633v-7.045c-2.496 0-4.21-1.1-5.141-3.301-.254-.593-.381-1.08-.381-1.46V12.119c0-1.142.529-2.243 1.587-3.3 1.1-.974 2.412-1.482 3.935-1.524V.249c-4.781 0-8.379 2.031-10.79 6.094-1.186 1.989-1.778 3.914-1.778 5.776v21.392zm15.806 11.807c3.343 0 6.242-1.312 8.696-3.935 2.116-2.328 3.174-4.972 3.174-7.935l-6.856-1.65c0 .465-.021.762-.063.888 0 .89-.106 1.65-.318 2.286a4.686 4.686 0 01-1.65 2.094c-.762.55-1.46.89-2.095 1.016l-.888.19v7.046zm0-38.022l1.65.508c1.439.72 2.433 1.756 2.983 3.11.212.635.318 1.354.318 2.158v.952l6.919-1.777c0-3.258-1.354-6.157-4.063-8.696-2.412-2.2-5.014-3.301-7.807-3.301v7.046zM122.552 45V.566h7.109v18.599h4.19v6.919h-4.19V45h-7.109zm14.663-18.916v-6.919h4.189V.566h7.11V45h-7.11V26.084h-4.189z"></path>
    </symbol>
    <symbol aria-hidden="true" data-prefix="fab" data-icon="instagram" xmlns="http://www.w3.org/2000/svg" viewBox="0 0 448 512" id="instagram">
        <path d="M224.1 141c-63.6 0-114.9 51.3-114.9 114.9s51.3 114.9 114.9 114.9S339 319.5 339 255.9 287.7 141 224.1 141zm0 189.6c-41.1 0-74.7-33.5-74.7-74.7s33.5-74.7 74.7-74.7 74.7 33.5 74.7 74.7-33.6 74.7-74.7 74.7zm146.4-194.3c0 14.9-12 26.8-26.8 26.8-14.9 0-26.8-12-26.8-26.8s12-26.8 26.8-26.8 26.8 12 26.8 26.8zm76.1 27.2c-1.7-35.9-9.9-67.7-36.2-93.9-26.2-26.2-58-34.4-93.9-36.2-37-2.1-147.9-2.1-184.9 0-35.8 1.7-67.6 9.9-93.9 36.1s-34.4 58-36.2 93.9c-2.1 37-2.1 147.9 0 184.9 1.7 35.9 9.9 67.7 36.2 93.9s58 34.4 93.9 36.2c37 2.1 147.9 2.1 184.9 0 35.9-1.7 67.7-9.9 93.9-36.2 26.2-26.2 34.4-58 36.2-93.9 2.1-37 2.1-147.8 0-184.8zM398.8 388c-7.8 19.6-22.9 34.7-42.6 42.6-29.5 11.7-99.5 9-132.1 9s-102.7 2.6-132.1-9c-19.6-7.8-34.7-22.9-42.6-42.6-11.7-29.5-9-99.5-9-132.1s-2.6-102.7 9-132.1c7.8-19.6 22.9-34.7 42.6-42.6 29.5-11.7 99.5-9 132.1-9s102.7-2.6 132.1 9c19.6 7.8 34.7 22.9 42.6 42.6 11.7 29.5 9 99.5 9 132.1s2.7 102.7-9 132.1z"></path>
    </symbol>
    <symbol xmlns="http://www.w3.org/2000/svg" viewBox="0 0 17 17" id="telegram">
        <g clip-path="url(#clip0)">
            <path d="M8.39 16.78c4.626 0 8.39-3.764 8.39-8.39C16.78 3.764 13.016 0 8.39 0 3.764 0 0 3.764 0 8.39c0 4.626 3.764 8.39 8.39 8.39zm0-15.731c4.048 0 7.341 3.293 7.341 7.341s-3.293 7.341-7.341 7.341-7.341-3.293-7.341-7.341S4.342 1.049 8.39 1.049z"></path>
            <path d="M5.52 9.897l1.097-.476-.308.308a.525.525 0 00-.154.37v2.053c0 .47.568.697.895.37l1.1-1.1 2.399 1.199a.524.524 0 00.75-.376l1.369-7.523a.525.525 0 00-.708-.583L3.07 7.62a.525.525 0 00-.092.93L5.03 9.86a.523.523 0 00.49.038zm5.948-4.438l-1.075 5.912-2.111-1.056a.523.523 0 00-.605.1l-.473.472v-.569l2.103-2.102c.407-.408-.051-1.08-.58-.852L5.359 8.826l-.947-.604 7.056-2.763z"></path>
        </g>
        <defs>
            <clipPath id="clip0">
                <path d="M0 0h16.78v16.78H0z"></path>
            </clipPath>
        </defs>
    </symbol>
</svg>